<svg width="21" height="15" viewBox="0 0 21 15" fill="none" xmlns="http://www.w3.org/2000/svg">
<path fill-rule="evenodd" clip-rule="evenodd" d="M2.83317 0.5H18.1665C19.2207 0.5 20.0832 1.2875 20.0832 2.25V12.75C20.0832 13.7125 19.2207 14.5 18.1665 14.5H2.83317C1.779 14.5 0.916504 13.7125 0.916504 12.75L0.926087 2.25C0.926087 1.2875 1.779 0.5 2.83317 0.5ZM11.0078 8.08625L17.7832 4.21875C18.0228 4.07875 18.1665 3.8425 18.1665 3.58875C18.1665 3.0025 17.4669 2.6525 16.9207 2.95875L10.4998 6.625L4.079 2.95875C3.53275 2.6525 2.83317 3.0025 2.83317 3.58875C2.83317 3.8425 2.97692 4.07875 3.2165 4.21875L9.99192 8.08625C10.2986 8.26125 10.7011 8.26125 11.0078 8.08625Z" fill="#011232"/>
</svg>
