<svg width="28" height="28" viewBox="0 0 28 28" fill="none" xmlns="http://www.w3.org/2000/svg">
<g clip-path="url(#clip0_94_3240)">
<path d="M14.0002 2.33333C7.55666 2.33333 2.3335 7.5565 2.3335 14C2.3335 19.8228 6.6 24.6493 12.1778 25.5255V17.3717H9.2145V14H12.1778V11.4298C12.1778 8.50616 13.9185 6.89149 16.5843 6.89149C17.8607 6.89149 19.1953 7.119 19.1953 7.119V9.989H17.7253C16.2752 9.989 15.8237 10.8885 15.8237 11.8113V14H19.0588L18.542 17.3717H15.8237V25.5255C21.4003 24.6505 25.6668 19.8217 25.6668 14C25.6668 7.5565 20.4437 2.33333 14.0002 2.33333Z" fill="#F5F8FF"/>
</g>
<defs>
<clipPath id="clip0_94_3240">
<rect width="28" height="28" fill="white"/>
</clipPath>
</defs>
</svg>
