<svg width="15" height="21" viewBox="0 0 15 21" fill="none" xmlns="http://www.w3.org/2000/svg">
<path fill-rule="evenodd" clip-rule="evenodd" d="M0.208496 7.65104C0.208496 3.61979 3.46891 0.359375 7.50016 0.359375C11.5314 0.359375 14.7918 3.61979 14.7918 7.65104C14.7918 11.9948 10.1877 17.9844 8.30225 20.2656C7.88558 20.7656 7.12516 20.7656 6.7085 20.2656C4.81266 17.9844 0.208496 11.9948 0.208496 7.65104ZM4.896 7.65104C4.896 9.08854 6.06266 10.2552 7.50016 10.2552C8.93766 10.2552 10.1043 9.08854 10.1043 7.65104C10.1043 6.21354 8.93766 5.04688 7.50016 5.04688C6.06266 5.04688 4.896 6.21354 4.896 7.65104Z" fill="#011232"/>
</svg>
