<svg width="148" height="30" viewBox="0 0 148 30" fill="none" xmlns="http://www.w3.org/2000/svg">
<path d="M25.6066 4.3934C23.5088 2.29562 20.8361 0.867005 17.9264 0.288227C15.0166 -0.290551 12.0006 0.00649965 9.25975 1.14181C6.51886 2.27713 4.17618 4.19972 2.52795 6.66646C0.879734 9.13319 -4.47962e-07 12.0333 0 15L7.80556 15C7.80556 13.5771 8.22751 12.1861 9.01804 11.003C9.80858 9.81987 10.9322 8.89774 12.2468 8.35321C13.5614 7.80868 15.008 7.66621 16.4036 7.94381C17.7991 8.22141 19.0811 8.90661 20.0872 9.91277L25.6066 4.3934Z" fill="#011232"/>
<path d="M20.4168 19.8333L15.0005 15H22.5005L21.5005 20L20.4168 19.8333Z" fill="#011232"/>
<path d="M22.1631 14.9999C22.1571 16.4206 21.7305 17.8078 20.9371 18.9865C20.1425 20.167 19.0158 21.0853 17.6993 21.6253C16.3829 22.1654 14.9358 22.3029 13.5412 22.0206C12.1466 21.7383 10.867 21.0487 9.86425 20.0391L4.32617 25.5397C6.41682 27.6446 9.0847 29.0823 11.9924 29.671C14.9002 30.2596 17.9172 29.9728 20.6619 28.8468C23.4066 27.7208 25.7558 25.8062 27.4124 23.3451C29.069 20.884 29.9586 17.9869 29.9687 15.0202L22.9991 14.9965V14.9999H22.1631Z" fill="#011232"/>
<path d="M48.712 23.192C47.096 23.192 45.704 22.832 44.536 22.112C43.384 21.376 42.496 20.392 41.872 19.16C41.248 17.928 40.936 16.56 40.936 15.056C40.936 13.552 41.256 12.184 41.896 10.952C42.536 9.72 43.44 8.744 44.608 8.024C45.792 7.288 47.176 6.92 48.76 6.92C50.472 6.92 51.952 7.344 53.2 8.192C54.464 9.024 55.392 10.104 55.984 11.432H54.016C53.536 10.584 52.864 9.912 52 9.416C51.152 8.92 50.12 8.672 48.904 8.672C47.624 8.672 46.52 8.96 45.592 9.536C44.664 10.096 43.952 10.856 43.456 11.816C42.976 12.776 42.736 13.856 42.736 15.056C42.736 16.24 42.976 17.32 43.456 18.296C43.936 19.256 44.632 20.024 45.544 20.6C46.472 21.16 47.576 21.44 48.856 21.44C49.816 21.44 50.72 21.232 51.568 20.816C52.432 20.4 53.128 19.8 53.656 19.016C54.2 18.232 54.472 17.288 54.472 16.184H48.664V14.552H56.128V23H54.472V20.192C54.136 20.704 53.704 21.192 53.176 21.656C52.648 22.104 52.008 22.472 51.256 22.76C50.52 23.048 49.672 23.192 48.712 23.192ZM64.2318 23.192C63.0158 23.192 61.9518 22.92 61.0398 22.376C60.1278 21.816 59.4158 21.064 58.9038 20.12C58.4078 19.176 58.1598 18.136 58.1598 17C58.1598 15.848 58.3998 14.808 58.8798 13.88C59.3598 12.936 60.0478 12.192 60.9438 11.648C61.8398 11.088 62.8958 10.808 64.1118 10.808C65.3438 10.808 66.3998 11.088 67.2798 11.648C68.1758 12.192 68.8638 12.936 69.3438 13.88C69.8238 14.808 70.0638 15.848 70.0638 17V17.72H60.0078C60.1038 18.424 60.3278 19.072 60.6798 19.664C61.0478 20.24 61.5358 20.704 62.1438 21.056C62.7518 21.392 63.4558 21.56 64.2558 21.56C65.1038 21.56 65.8158 21.376 66.3918 21.008C66.9678 20.624 67.4158 20.136 67.7358 19.544H69.7038C69.2878 20.616 68.6238 21.496 67.7118 22.184C66.8158 22.856 65.6558 23.192 64.2318 23.192ZM60.0318 16.04H68.1918C68.0318 15.016 67.5998 14.16 66.8958 13.472C66.1918 12.784 65.2638 12.44 64.1118 12.44C62.9598 12.44 62.0318 12.784 61.3278 13.472C60.6398 14.16 60.2078 15.016 60.0318 16.04ZM73.5591 23V12.584H71.1111V11H73.5591V6.704H75.3591V11H78.1191V12.584H75.3591V23H73.5591ZM87.2433 23.192C85.6273 23.192 84.2353 22.832 83.0673 22.112C81.9153 21.376 81.0273 20.392 80.4033 19.16C79.7793 17.928 79.4673 16.56 79.4673 15.056C79.4673 13.552 79.7873 12.184 80.4273 10.952C81.0673 9.72 81.9713 8.744 83.1393 8.024C84.3233 7.288 85.7073 6.92 87.2913 6.92C89.0033 6.92 90.4833 7.344 91.7313 8.192C92.9953 9.024 93.9233 10.104 94.5153 11.432H92.5473C92.0673 10.584 91.3953 9.912 90.5312 9.416C89.6833 8.92 88.6513 8.672 87.4353 8.672C86.1553 8.672 85.0513 8.96 84.1233 9.536C83.1953 10.096 82.4833 10.856 81.9873 11.816C81.5073 12.776 81.2673 13.856 81.2673 15.056C81.2673 16.24 81.5073 17.32 81.9873 18.296C82.4673 19.256 83.1633 20.024 84.0753 20.6C85.0033 21.16 86.1073 21.44 87.3873 21.44C88.3473 21.44 89.2513 21.232 90.0993 20.816C90.9633 20.4 91.6593 19.8 92.1873 19.016C92.7313 18.232 93.0033 17.288 93.0033 16.184H87.1953V14.552H94.6593V23H93.0033V20.192C92.6673 20.704 92.2353 21.192 91.7073 21.656C91.1793 22.104 90.5393 22.472 89.7873 22.76C89.0513 23.048 88.2033 23.192 87.2433 23.192ZM97.435 23V6.2H99.235V23H97.435ZM107.565 23.192C106.349 23.192 105.293 22.92 104.397 22.376C103.501 21.816 102.813 21.064 102.333 20.12C101.853 19.176 101.613 18.136 101.613 17C101.613 15.848 101.853 14.808 102.333 13.88C102.813 12.936 103.501 12.192 104.397 11.648C105.293 11.088 106.349 10.808 107.565 10.808C108.797 10.808 109.853 11.088 110.733 11.648C111.629 12.192 112.317 12.936 112.797 13.88C113.277 14.808 113.517 15.848 113.517 17C113.517 18.136 113.277 19.176 112.797 20.12C112.317 21.064 111.629 21.816 110.733 22.376C109.853 22.92 108.797 23.192 107.565 23.192ZM107.565 21.56C108.461 21.56 109.213 21.352 109.821 20.936C110.445 20.52 110.917 19.968 111.237 19.28C111.557 18.576 111.717 17.816 111.717 17C111.717 16.168 111.557 15.408 111.237 14.72C110.917 14.032 110.445 13.48 109.821 13.064C109.213 12.648 108.461 12.44 107.565 12.44C106.685 12.44 105.933 12.648 105.309 13.064C104.685 13.48 104.213 14.032 103.893 14.72C103.573 15.408 103.413 16.168 103.413 17C103.413 17.816 103.573 18.576 103.893 19.28C104.213 19.968 104.685 20.52 105.309 20.936C105.933 21.352 106.685 21.56 107.565 21.56ZM122 23.192C121.008 23.192 120.152 23 119.432 22.616C118.728 22.232 118.152 21.72 117.704 21.08V23H115.904V6.2H117.704V12.944C118.152 12.288 118.728 11.768 119.432 11.384C120.152 11 121.008 10.808 122 10.808C123.168 10.808 124.184 11.088 125.048 11.648C125.928 12.192 126.608 12.936 127.088 13.88C127.568 14.808 127.808 15.848 127.808 17C127.808 18.136 127.568 19.176 127.088 20.12C126.608 21.064 125.928 21.816 125.048 22.376C124.184 22.92 123.168 23.192 122 23.192ZM121.76 21.56C122.656 21.56 123.416 21.352 124.04 20.936C124.68 20.52 125.168 19.968 125.504 19.28C125.84 18.576 126.008 17.816 126.008 17C126.008 16.168 125.84 15.408 125.504 14.72C125.168 14.032 124.68 13.48 124.04 13.064C123.416 12.648 122.656 12.44 121.76 12.44C120.88 12.44 120.128 12.648 119.504 13.064C118.88 13.48 118.408 14.032 118.088 14.72C117.768 15.408 117.608 16.168 117.608 17C117.608 17.816 117.768 18.576 118.088 19.28C118.408 19.968 118.88 20.52 119.504 20.936C120.128 21.352 120.88 21.56 121.76 21.56ZM135.241 23.192C134.073 23.192 133.049 22.92 132.169 22.376C131.305 21.816 130.633 21.064 130.153 20.12C129.673 19.176 129.433 18.136 129.433 17C129.433 15.848 129.673 14.808 130.153 13.88C130.633 12.936 131.305 12.192 132.169 11.648C133.049 11.088 134.073 10.808 135.241 10.808C136.233 10.808 137.081 11 137.785 11.384C138.505 11.768 139.089 12.288 139.537 12.944V11H141.337V23H139.537V21.08C139.089 21.72 138.505 22.232 137.785 22.616C137.081 23 136.233 23.192 135.241 23.192ZM135.481 21.56C136.377 21.56 137.129 21.352 137.737 20.936C138.361 20.52 138.833 19.968 139.153 19.28C139.473 18.576 139.633 17.816 139.633 17C139.633 16.168 139.473 15.408 139.153 14.72C138.833 14.032 138.361 13.48 137.737 13.064C137.129 12.648 136.377 12.44 135.481 12.44C134.601 12.44 133.841 12.648 133.201 13.064C132.561 13.48 132.073 14.032 131.737 14.72C131.401 15.408 131.233 16.168 131.233 17C131.233 17.816 131.401 18.576 131.737 19.28C132.073 19.968 132.561 20.52 133.201 20.936C133.841 21.352 134.601 21.56 135.481 21.56ZM144.451 23V6.2H146.251V23H144.451Z" fill="#011232"/>
</svg>
