<svg width="144" height="28" viewBox="0 0 144 28" fill="none" xmlns="http://www.w3.org/2000/svg">
<path d="M23.8995 4.1005C21.9416 2.14257 19.447 0.809198 16.7313 0.269006C14.0155 -0.271187 11.2006 0.00606009 8.64243 1.06569C6.08426 2.12531 3.89776 3.91973 2.35942 6.22202C0.821085 8.52431 -4.18098e-07 11.2311 0 14L7.28519 14C7.28519 12.6719 7.67901 11.3737 8.41684 10.2695C9.15467 9.16521 10.2034 8.30456 11.4304 7.79633C12.6573 7.2881 14.0074 7.15512 15.31 7.41422C16.6125 7.67331 17.809 8.31283 18.7481 9.25191L23.8995 4.1005Z" fill="#F5F8FF"/>
<path d="M19.0557 18.5111L14.0005 14H21.0005L20.0672 18.6667L19.0557 18.5111Z" fill="#F5F8FF"/>
<path fill-rule="evenodd" clip-rule="evenodd" d="M20.6853 14.0002C20.6796 15.3262 20.2815 16.6209 19.541 17.721C18.7994 18.8227 17.7478 19.6798 16.5191 20.1838C15.2904 20.6879 13.9399 20.8163 12.6382 20.5528C11.3365 20.2893 10.1423 19.6457 9.20637 18.7034L4.03749 23.8373C5.98876 25.8019 8.47878 27.1437 11.1927 27.6931C13.9065 28.2425 16.7224 27.9748 19.2842 26.9239C21.8459 25.873 24.0385 24.086 25.5846 21.7889C27.1308 19.4919 27.9611 16.7879 27.9705 14.019L21.4656 13.9969V14.0002H20.6853Z" fill="#F5F8FF"/>
<path d="M44.712 22.192C43.096 22.192 41.704 21.832 40.536 21.112C39.384 20.376 38.496 19.392 37.872 18.16C37.248 16.928 36.936 15.56 36.936 14.056C36.936 12.552 37.256 11.184 37.896 9.952C38.536 8.72 39.44 7.744 40.608 7.024C41.792 6.288 43.176 5.92 44.76 5.92C46.472 5.92 47.952 6.344 49.2 7.192C50.464 8.024 51.392 9.104 51.984 10.432H50.016C49.536 9.584 48.864 8.912 48 8.416C47.152 7.92 46.12 7.672 44.904 7.672C43.624 7.672 42.52 7.96 41.592 8.536C40.664 9.096 39.952 9.856 39.456 10.816C38.976 11.776 38.736 12.856 38.736 14.056C38.736 15.24 38.976 16.32 39.456 17.296C39.936 18.256 40.632 19.024 41.544 19.6C42.472 20.16 43.576 20.44 44.856 20.44C45.816 20.44 46.72 20.232 47.568 19.816C48.432 19.4 49.128 18.8 49.656 18.016C50.2 17.232 50.472 16.288 50.472 15.184H44.664V13.552H52.128V22H50.472V19.192C50.136 19.704 49.704 20.192 49.176 20.656C48.648 21.104 48.008 21.472 47.256 21.76C46.52 22.048 45.672 22.192 44.712 22.192ZM60.2318 22.192C59.0158 22.192 57.9518 21.92 57.0398 21.376C56.1278 20.816 55.4158 20.064 54.9038 19.12C54.4078 18.176 54.1598 17.136 54.1598 16C54.1598 14.848 54.3998 13.808 54.8798 12.88C55.3598 11.936 56.0478 11.192 56.9438 10.648C57.8398 10.088 58.8958 9.808 60.1118 9.808C61.3438 9.808 62.3998 10.088 63.2798 10.648C64.1758 11.192 64.8638 11.936 65.3438 12.88C65.8238 13.808 66.0638 14.848 66.0638 16V16.72H56.0078C56.1038 17.424 56.3278 18.072 56.6798 18.664C57.0478 19.24 57.5358 19.704 58.1438 20.056C58.7518 20.392 59.4558 20.56 60.2558 20.56C61.1038 20.56 61.8158 20.376 62.3918 20.008C62.9678 19.624 63.4158 19.136 63.7358 18.544H65.7038C65.2878 19.616 64.6238 20.496 63.7118 21.184C62.8158 21.856 61.6558 22.192 60.2318 22.192ZM56.0318 15.04H64.1918C64.0318 14.016 63.5998 13.16 62.8958 12.472C62.1918 11.784 61.2638 11.44 60.1118 11.44C58.9598 11.44 58.0318 11.784 57.3278 12.472C56.6398 13.16 56.2078 14.016 56.0318 15.04ZM69.5591 22V11.584H67.1111V10H69.5591V5.704H71.3591V10H74.1191V11.584H71.3591V22H69.5591ZM83.2433 22.192C81.6273 22.192 80.2353 21.832 79.0673 21.112C77.9153 20.376 77.0273 19.392 76.4033 18.16C75.7793 16.928 75.4673 15.56 75.4673 14.056C75.4673 12.552 75.7873 11.184 76.4273 9.952C77.0673 8.72 77.9713 7.744 79.1393 7.024C80.3233 6.288 81.7073 5.92 83.2913 5.92C85.0033 5.92 86.4833 6.344 87.7313 7.192C88.9953 8.024 89.9233 9.104 90.5153 10.432H88.5473C88.0673 9.584 87.3953 8.912 86.5312 8.416C85.6833 7.92 84.6513 7.672 83.4353 7.672C82.1553 7.672 81.0513 7.96 80.1233 8.536C79.1953 9.096 78.4833 9.856 77.9873 10.816C77.5073 11.776 77.2673 12.856 77.2673 14.056C77.2673 15.24 77.5073 16.32 77.9873 17.296C78.4673 18.256 79.1633 19.024 80.0753 19.6C81.0033 20.16 82.1073 20.44 83.3873 20.44C84.3473 20.44 85.2513 20.232 86.0993 19.816C86.9633 19.4 87.6593 18.8 88.1873 18.016C88.7313 17.232 89.0033 16.288 89.0033 15.184H83.1953V13.552H90.6593V22H89.0033V19.192C88.6673 19.704 88.2353 20.192 87.7073 20.656C87.1793 21.104 86.5393 21.472 85.7873 21.76C85.0513 22.048 84.2033 22.192 83.2433 22.192ZM93.435 22V5.2H95.235V22H93.435ZM103.565 22.192C102.349 22.192 101.293 21.92 100.397 21.376C99.5009 20.816 98.8129 20.064 98.3329 19.12C97.8529 18.176 97.6129 17.136 97.6129 16C97.6129 14.848 97.8529 13.808 98.3329 12.88C98.8129 11.936 99.5009 11.192 100.397 10.648C101.293 10.088 102.349 9.808 103.565 9.808C104.797 9.808 105.853 10.088 106.733 10.648C107.629 11.192 108.317 11.936 108.797 12.88C109.277 13.808 109.517 14.848 109.517 16C109.517 17.136 109.277 18.176 108.797 19.12C108.317 20.064 107.629 20.816 106.733 21.376C105.853 21.92 104.797 22.192 103.565 22.192ZM103.565 20.56C104.461 20.56 105.213 20.352 105.821 19.936C106.445 19.52 106.917 18.968 107.237 18.28C107.557 17.576 107.717 16.816 107.717 16C107.717 15.168 107.557 14.408 107.237 13.72C106.917 13.032 106.445 12.48 105.821 12.064C105.213 11.648 104.461 11.44 103.565 11.44C102.685 11.44 101.933 11.648 101.309 12.064C100.685 12.48 100.213 13.032 99.8929 13.72C99.5729 14.408 99.4129 15.168 99.4129 16C99.4129 16.816 99.5729 17.576 99.8929 18.28C100.213 18.968 100.685 19.52 101.309 19.936C101.933 20.352 102.685 20.56 103.565 20.56ZM118 22.192C117.008 22.192 116.152 22 115.432 21.616C114.728 21.232 114.152 20.72 113.704 20.08V22H111.904V5.2H113.704V11.944C114.152 11.288 114.728 10.768 115.432 10.384C116.152 10 117.008 9.808 118 9.808C119.168 9.808 120.184 10.088 121.048 10.648C121.928 11.192 122.608 11.936 123.088 12.88C123.568 13.808 123.808 14.848 123.808 16C123.808 17.136 123.568 18.176 123.088 19.12C122.608 20.064 121.928 20.816 121.048 21.376C120.184 21.92 119.168 22.192 118 22.192ZM117.76 20.56C118.656 20.56 119.416 20.352 120.04 19.936C120.68 19.52 121.168 18.968 121.504 18.28C121.84 17.576 122.008 16.816 122.008 16C122.008 15.168 121.84 14.408 121.504 13.72C121.168 13.032 120.68 12.48 120.04 12.064C119.416 11.648 118.656 11.44 117.76 11.44C116.88 11.44 116.128 11.648 115.504 12.064C114.88 12.48 114.408 13.032 114.088 13.72C113.768 14.408 113.608 15.168 113.608 16C113.608 16.816 113.768 17.576 114.088 18.28C114.408 18.968 114.88 19.52 115.504 19.936C116.128 20.352 116.88 20.56 117.76 20.56ZM131.241 22.192C130.073 22.192 129.049 21.92 128.169 21.376C127.305 20.816 126.633 20.064 126.153 19.12C125.673 18.176 125.433 17.136 125.433 16C125.433 14.848 125.673 13.808 126.153 12.88C126.633 11.936 127.305 11.192 128.169 10.648C129.049 10.088 130.073 9.808 131.241 9.808C132.233 9.808 133.081 10 133.785 10.384C134.505 10.768 135.089 11.288 135.537 11.944V10H137.337V22H135.537V20.08C135.089 20.72 134.505 21.232 133.785 21.616C133.081 22 132.233 22.192 131.241 22.192ZM131.481 20.56C132.377 20.56 133.129 20.352 133.737 19.936C134.361 19.52 134.833 18.968 135.153 18.28C135.473 17.576 135.633 16.816 135.633 16C135.633 15.168 135.473 14.408 135.153 13.72C134.833 13.032 134.361 12.48 133.737 12.064C133.129 11.648 132.377 11.44 131.481 11.44C130.601 11.44 129.841 11.648 129.201 12.064C128.561 12.48 128.073 13.032 127.737 13.72C127.401 14.408 127.233 15.168 127.233 16C127.233 16.816 127.401 17.576 127.737 18.28C128.073 18.968 128.561 19.52 129.201 19.936C129.841 20.352 130.601 20.56 131.481 20.56ZM140.451 22V5.2H142.251V22H140.451Z" fill="#F5F8FF"/>
</svg>
