<svg width="28" height="28" viewBox="0 0 28 28" fill="none" xmlns="http://www.w3.org/2000/svg">
<g clip-path="url(#clip0_94_3234)">
<path d="M25.1337 7.58101C25.6668 9.66001 25.6668 14 25.6668 14C25.6668 14 25.6668 18.34 25.1337 20.419C24.8373 21.5682 23.9705 22.4723 22.8727 22.778C20.8788 23.3333 14.0002 23.3333 14.0002 23.3333C14.0002 23.3333 7.125 23.3333 5.12766 22.778C4.02516 22.4677 3.1595 21.5647 2.86666 20.419C2.3335 18.34 2.3335 14 2.3335 14C2.3335 14 2.3335 9.66001 2.86666 7.58101C3.163 6.43184 4.02983 5.52767 5.12766 5.222C7.125 4.66667 14.0002 4.66667 14.0002 4.66667C14.0002 4.66667 20.8788 4.66667 22.8727 5.222C23.9752 5.53234 24.8408 6.43534 25.1337 7.58101ZM11.6668 18.0833L18.6668 14L11.6668 9.91667V18.0833Z" fill="#F5F8FF"/>
</g>
<defs>
<clipPath id="clip0_94_3234">
<rect width="28" height="28" fill="white"/>
</clipPath>
</defs>
</svg>
